<?xml version="1.0" encoding="utf-8"?>
<!-- Generator: Adobe Illustrator 22.0.1, SVG Export Plug-In . SVG Version: 6.00 Build 0)  -->
<svg version="1.1" id="Layer_1" xmlns="http://www.w3.org/2000/svg" xmlns:xlink="http://www.w3.org/1999/xlink" x="0px" y="0px"
	 viewBox="0 0 257.453 368.006" style="enable-background:new 0 0 257.453 368.006;" xml:space="preserve">
<style type="text/css">
	.st0{fill:url(#SVGID_1_);}
	.st1{fill:url(#SVGID_2_);stroke:#000000;stroke-miterlimit:10;}
	.st2{fill:url(#SVGID_3_);stroke:#000000;stroke-miterlimit:10;}
	.st3{fill:url(#SVGID_4_);stroke:#000000;stroke-miterlimit:10;}
	.st4{fill:url(#SVGID_5_);stroke:#000000;stroke-miterlimit:10;}
	.st5{fill:url(#SVGID_6_);}
	.st6{fill:url(#SVGID_7_);stroke:#000000;stroke-miterlimit:10;}
</style>
<g>
	<linearGradient id="SVGID_1_" gradientUnits="userSpaceOnUse" x1="43.4708" y1="362.2459" x2="247.1228" y2="19.1302">
		<stop  offset="0" style="stop-color:#FFFFFF"/>
		<stop  offset="0.1651" style="stop-color:#FDFDFD"/>
		<stop  offset="0.2245" style="stop-color:#F6F6F6"/>
		<stop  offset="0.2669" style="stop-color:#EBEBEB"/>
		<stop  offset="0.3012" style="stop-color:#DADADA"/>
		<stop  offset="0.3305" style="stop-color:#C4C4C4"/>
		<stop  offset="0.3561" style="stop-color:#A9A9A9"/>
		<stop  offset="0.3685" style="stop-color:#999999"/>
		<stop  offset="0.461" style="stop-color:#FFFFFF"/>
		<stop  offset="0.6659" style="stop-color:#FDFDFD"/>
		<stop  offset="0.7398" style="stop-color:#F6F6F6"/>
		<stop  offset="0.7924" style="stop-color:#EBEBEB"/>
		<stop  offset="0.8349" style="stop-color:#DADADA"/>
		<stop  offset="0.8714" style="stop-color:#C4C4C4"/>
		<stop  offset="0.9031" style="stop-color:#A9A9A9"/>
		<stop  offset="0.9185" style="stop-color:#999999"/>
		<stop  offset="0.955" style="stop-color:#9B9B9B"/>
		<stop  offset="0.9682" style="stop-color:#A2A2A2"/>
		<stop  offset="0.9775" style="stop-color:#ADADAD"/>
		<stop  offset="0.9851" style="stop-color:#BEBEBE"/>
		<stop  offset="0.9916" style="stop-color:#D4D4D4"/>
		<stop  offset="0.9972" style="stop-color:#EFEFEF"/>
		<stop  offset="1" style="stop-color:#FFFFFF"/>
	</linearGradient>
	<polygon class="st0" points="37.881,357.284 237.723,11.146 254.611,20.896 54.768,367.034 	"/>
	<path d="M237.907,11.828l16.021,9.25L54.585,366.35l-16.021-9.25L237.907,11.828 M237.541,10.462L37.198,357.466l17.754,10.25
		L255.294,20.712L237.541,10.462L237.541,10.462z"/>
</g>
<linearGradient id="SVGID_2_" gradientUnits="userSpaceOnUse" x1="168.1738" y1="56.911" x2="134.0956" y2="65.8495">
	<stop  offset="0" style="stop-color:#000000"/>
	<stop  offset="1" style="stop-color:#FFFFFF"/>
</linearGradient>
<path class="st1" d="M147.746,29.589c-4.114,13.139-15.635,21.982-28,22c-13.616,0.02-21.993-10.67-23-12
	c0.216,5.512-0.045,17.76-7,31c-6.779,12.905-16.373,20.002-21,23c1.085,1.404,14.071,17.656,34,16c10.646-0.884,18.011-6.442,21-9
	c4.654-3.303,16.655-12.747,23-30C153.794,51.422,149.372,34.827,147.746,29.589z"/>
<linearGradient id="SVGID_3_" gradientUnits="userSpaceOnUse" x1="246.5525" y1="72.3172" x2="218.6195" y2="46.0602">
	<stop  offset="0" style="stop-color:#000000"/>
	<stop  offset="1" style="stop-color:#FFFFFF"/>
</linearGradient>
<path class="st2" d="M248.246,13.089c-3.425-0.741-6.928-1.571-10.5-2.5c-10.142-2.638-19.485-5.723-28-9
	c-3.513,19.351-17.519,33.783-34,36c-14.059,1.892-25.02-5.765-28-8c1.309,4.539,5.954,18.483,20,29
	c14.806,11.087,30.418,11.148,35,11c5.828-3.643,12.432-8.516,19-15C236.782,39.747,244.381,23.622,248.246,13.089z"/>
<linearGradient id="SVGID_4_" gradientUnits="userSpaceOnUse" x1="79.9976" y1="108.1052" x2="61.0032" y2="122.6303">
	<stop  offset="0" style="stop-color:#000000"/>
	<stop  offset="1" style="stop-color:#FFFFFF"/>
</linearGradient>
<path class="st3" d="M68.746,93.589c0.278,12.349-9.059,21.873-19,22c-7.451,0.096-14.712-5.095-18-13
	c0.081,7.196-0.747,21.606-9,37c-6.101,11.381-13.847,18.8-19,23c1.715,2.75,6.974,10.372,17,14c12.309,4.454,25.969,0.778,34-7
	c4.161-4.03,6.87-9.217,10-29C66.541,129.242,68.455,113.225,68.746,93.589z"/>
<linearGradient id="SVGID_5_" gradientUnits="userSpaceOnUse" x1="52.0966" y1="152.4565" x2="46.51" y2="173.6855">
	<stop  offset="0" style="stop-color:#000000"/>
	<stop  offset="1" style="stop-color:#FFFFFF"/>
</linearGradient>
<path class="st4" d="M82.746,209.589c-11.846-2.465-20.974-11.641-23-23c-2.639-14.796,8.206-25.259,9-26
	c-8.898-1.365-19.715-2.337-32-2c-12.796,0.351-23.944,2.034-33,4c0.964,9.393,3.411,22.938,10,38c6.553,14.98,14.783,25.927,21,33
	c2.761-4.123,7.504-10.022,15-15C63.344,209.56,77.265,209.367,82.746,209.589z"/>
<g>
	<radialGradient id="SVGID_6_" cx="28.3848" cy="175.3157" r="95.1252" fx="39.6047" fy="156.2908" gradientUnits="userSpaceOnUse">
		<stop  offset="0.4347" style="stop-color:#000000"/>
		<stop  offset="1" style="stop-color:#FFFFFF"/>
	</radialGradient>
	<path class="st5" d="M112.553,273.533c-8.855-11.372-16.034-23.859-21.343-37.129c-3.429-8.57-6.091-17.521-7.914-26.612
		c5.846-4.599,15.479-10.461,28.535-12.709c3.534-0.609,7.145-0.918,10.733-0.918c6.395,0,12.725,0.954,18.817,2.835
		c3.116,7.038,5.768,14.347,7.885,21.728c2.988,10.419,4.976,21.189,5.909,32.028c-4.211-1.981-8.704-3.024-13.048-3.024
		c-1.496,0-2.997,0.123-4.462,0.365C126.214,251.992,116.664,260.935,112.553,273.533z"/>
	<path d="M122.565,195.665v1c6.268,0,12.473,0.923,18.451,2.746c3.066,6.951,5.678,14.167,7.769,21.455
		c2.901,10.115,4.856,20.562,5.816,31.08c-4.047-1.78-8.325-2.714-12.473-2.714c-1.523,0-3.052,0.125-4.545,0.372
		c-11.364,1.881-20.882,10.579-25.204,22.888c-8.565-11.137-15.526-23.331-20.704-36.272c-3.381-8.449-6.013-17.268-7.827-26.223
		c5.823-4.533,15.295-10.221,28.068-12.421c3.505-0.604,7.088-0.91,10.648-0.91L122.565,195.665 M122.563,195.665
		c-3.354,0-6.982,0.264-10.818,0.924c-14.54,2.504-24.471,9.401-29,13c1.57,7.911,4.04,17.103,8,27
		c6.571,16.422,14.951,29.062,22,38c3.83-12.71,13.47-22.091,25-24c1.515-0.251,2.98-0.359,4.382-0.359
		c6.167,0,11.105,2.095,13.618,3.359c-0.76-9.394-2.454-20.639-6-33c-2.379-8.295-5.177-15.647-8-22
		C137.819,197.362,131.07,195.665,122.563,195.665L122.563,195.665z"/>
</g>
<linearGradient id="SVGID_7_" gradientUnits="userSpaceOnUse" x1="147.227" y1="246.9138" x2="165.1041" y2="258.087">
	<stop  offset="0" style="stop-color:#000000"/>
	<stop  offset="1" style="stop-color:#FFFFFF"/>
</linearGradient>
<path class="st6" d="M242.746,291.589c-4.753,3.491-12.128,8.03-22,11c-6.95,2.091-13.169,2.813-18,3c-2.172,0.04-25.3,0.071-39-19
	c-10.109-14.072-8.486-29.359-8-33c7.167-2.962,17.026-6.047,29-7c5.517-0.439,10.56-0.352,15,0c0.626,5.1,2.596,15.177,10,25
	C221.493,287.176,238.38,290.791,242.746,291.589z"/>
</svg>
