<?xml version="1.0" encoding="utf-8"?>
<!-- Generator: Adobe Illustrator 22.0.1, SVG Export Plug-In . SVG Version: 6.00 Build 0)  -->
<svg version="1.1" id="Layer_1" xmlns="http://www.w3.org/2000/svg" xmlns:xlink="http://www.w3.org/1999/xlink" x="0px" y="0px"
	 viewBox="0 0 257.453 368.006" style="enable-background:new 0 0 257.453 368.006;" xml:space="preserve">
<style type="text/css">
	.st0{fill:none;stroke:#000000;stroke-miterlimit:10;}
	.st1{fill:none;stroke:#000000;stroke-width:2;stroke-miterlimit:10;}
</style>
<g>
	<path d="M147.624,31.84c2.11,8.267,3.82,22.075-1.817,37.404c-5.829,15.851-16.687,25.305-22.64,29.53L123.13,98.8l-0.034,0.029
		c-4.172,3.57-11.104,7.988-20.433,8.763c-0.917,0.076-1.846,0.115-2.76,0.115c-15.925,0-26.763-11.424-29.687-14.892
		c6.185-4.17,14.434-11.378,20.414-22.761c5.676-10.804,7.109-21.164,7.159-28.689c3.461,3.719,11.071,10.224,21.957,10.224
		C131.643,51.572,142.718,43.591,147.624,31.84 M147.746,28.589c-4.114,13.139-15.635,21.982-28,22c-0.012,0-0.026,0-0.038,0
		c-13.594,0-21.955-10.671-22.962-12c0.216,5.512-0.045,17.76-7,31c-6.779,12.905-16.373,20.002-21,23
		c1.032,1.336,12.844,16.118,31.158,16.118c0.931,0,1.878-0.038,2.842-0.118c10.646-0.884,18.011-6.442,21-9
		c4.654-3.303,16.655-12.747,23-30C153.794,50.422,149.372,33.827,147.746,28.589L147.746,28.589z"/>
</g>
<g>
	<path d="M210.501,1.949c8.82,3.348,17.896,6.242,26.993,8.609c3.107,0.808,6.268,1.568,9.413,2.263
		c-5.807,15.373-14.505,28.845-25.863,40.058c-5.61,5.538-11.866,10.489-18.599,14.72c-0.393,0.011-0.854,0.019-1.377,0.019
		c-6.82,0-20.141-1.407-32.723-10.828c-11.058-8.28-16.325-18.785-18.747-25.688c4.732,3.073,12.38,6.786,21.697,6.786
		c1.53,0,3.072-0.103,4.584-0.307C192.532,35.34,206.624,20.767,210.501,1.949 M209.746,0.589c-3.513,19.351-17.519,33.783-34,36
		c-1.521,0.205-3.008,0.298-4.45,0.298c-11.889,0-20.892-6.304-23.55-8.298c1.309,4.539,5.954,18.483,20,29
		c13.336,9.986,27.328,11.027,33.322,11.027c0.66,0,1.223-0.013,1.678-0.027c5.828-3.643,12.432-8.516,19-15
		c15.036-14.843,22.635-30.967,26.5-41.5c-3.425-0.741-6.928-1.571-10.5-2.5C227.604,6.951,218.261,3.866,209.746,0.589
		L209.746,0.589z"/>
</g>
<path class="st0" d="M60.64,158.543c1.396-4.209,2.709-10.126,4.106-18.954c1.796-11.347,3.709-27.364,4-47
	c0.278,12.349-9.059,21.873-19,22c-7.451,0.096-14.712-5.095-18-13c0.081,7.196-0.747,21.606-9,37c-6.101,11.381-13.847,18.8-19,23"
	/>
<path class="st0" d="M36.746,157.589"/>
<path class="st0" d="M54.746,168.589"/>
<path class="st0" d="M20.746,175.589"/>
<path class="st0" d="M20.746,175.589"/>
<path class="st0" d="M60.64,158.543c-7.081-0.76-15.102-1.193-23.894-0.954c-12.656,0.345-33,4-33,4c0.964,9.393,3.411,22.938,10,38
	c6.553,14.98,14.783,25.927,21,33c2.761-4.123,7.504-10.022,15-15c13.598-9.029,27.519-9.223,33-9
	c-11.846-2.465-20.974-11.641-23-23c-2.639-14.796,8.206-25.259,9-26C66.203,159.199,63.486,158.848,60.64,158.543"/>
<path class="st0" d="M54.746,168.589"/>
<path class="st1" d="M141.746,197.589"/>
<path class="st1" d="M146.201,208.668L255.294,19.712L237.54,9.462L130.338,195.143"/>
<polyline class="st1" points="98.013,251.13 37.198,356.466 54.951,366.716 110.447,270.595 "/>
<path class="st0" d="M112.746,273.589"/>
<path class="st0" d="M110.447,270.595"/>
<g>
	<path d="M192.238,245.292v1c2.196,0,4.419,0.079,6.622,0.234c0.899,6.494,3.397,15.789,10.088,24.665
		c10.071,13.362,23.991,18.213,31.351,19.912c-6.111,4.202-12.775,7.403-19.84,9.529c-5.749,1.73-11.722,2.725-17.73,2.958
		c-0.094,0.002-0.229,0.003-0.402,0.003c-4.077,0-25.059-0.896-37.767-18.587c-8.925-12.424-8.58-25.925-7.893-31.712
		c9.073-3.686,18.544-5.942,28.16-6.707c2.454-0.195,4.948-0.294,7.413-0.294V245.292 M192.238,245.292
		c-2.382,0-4.884,0.09-7.492,0.297c-11.974,0.953-21.833,4.038-29,7c-0.486,3.641-2.109,18.928,8,33
		c13.08,18.208,34.755,19.004,38.579,19.004c0.181,0,0.322-0.002,0.421-0.004c4.831-0.187,11.05-0.909,18-3
		c9.872-2.97,17.247-7.509,22-11c-4.366-0.798-21.253-4.413-33-20c-7.404-9.823-9.374-19.9-10-25
		C197.404,245.404,194.896,245.292,192.238,245.292L192.238,245.292z"/>
</g>
<path class="st0" d="M111.746,195.589c-14.54,2.504-24.471,9.401-29,13c1.57,7.911,4.04,17.103,8,27
	c6.571,16.422,14.951,29.062,22,38c3.83-12.71,13.47-22.091,25-24c8.179-1.354,14.915,1.448,18,3c-0.76-9.394-2.454-20.639-6-33
	c-2.379-8.295-5.177-15.647-8-22C136.27,195.878,125.308,193.254,111.746,195.589z"/>
</svg>
