<?xml version="1.0" encoding="utf-8"?>
<svg viewBox="0 0 640 640" width="640" height="640" xmlns="http://www.w3.org/2000/svg">
  <g transform="matrix(1, 0, 0, 1, 0, -17.546565)">
    <g>
      <g/>
      <g>
        <path d="M131.8 220.81L264.61 353.63L225.07 393.17L92.25 260.36L131.8 220.81Z" transform="matrix(1, 0, 0, 1, 0, 0)" opacity="1" fill="#93cd68" fill-opacity="1"/>
      </g>
      <g>
        <path d="M132.32 483.72L545.72 70.32L640 164.6L226.6 578L132.32 483.72Z" transform="matrix(1, 0, 0, 1, 0, 0)" opacity="1" fill="#1cba0a" fill-opacity="1"/>
      </g>
      <g>
        <path d="M93.78 258.5L312.43 477.16L218.66 570.93L0 352.28L93.78 258.5Z" transform="matrix(1, 0, 0, 1, 0, 0)" opacity="1" fill="#1cba0a" fill-opacity="1"/>
      </g>
      <g>
        <path d="M545.95 70.01L640.22 164.28L600.68 203.83L506.4 109.55L545.95 70.01Z" transform="matrix(1, 0, 0, 1, 0, 0)" opacity="1" fill="#93cd68" fill-opacity="1"/>
      </g>
      <g>
        <path d="M656.64 147.97L681.2 172.53L251.04 602.68L226.49 578.13L656.64 147.97Z" transform="matrix(1, 0, 0, 1, 0, 0)" opacity="1" fill="#5d843f" fill-opacity="1"/>
      </g>
    </g>
  </g>
</svg>