<?xml version="1.0" encoding="UTF-8" standalone="no"?>
<!DOCTYPE svg PUBLIC "-//W3C//DTD SVG 1.1//EN" "http://www.w3.org/Graphics/SVG/1.1/DTD/svg11.dtd">
<svg version="1.1" xmlns="http://www.w3.org/2000/svg" xmlns:xlink="http://www.w3.org/1999/xlink" preserveAspectRatio="xMidYMid meet" viewBox="0 0 640 640" width="640" height="640"><defs><path d="M-0.5 0L639.5 0L639.5 640L-0.5 640L-0.5 0Z" id="e1UjXzUa79"></path><path d="M131.8 220.81L264.61 353.63L225.07 393.17L92.25 260.36L131.8 220.81Z" id="c2R5X2WtFw"></path><path d="M132.32 483.72L545.72 70.32L640 164.6L226.6 578L132.32 483.72Z" id="jmfvpD7CI"></path><path d="M93.78 258.5L312.43 477.16L218.66 570.93L0 352.28L93.78 258.5Z" id="cmkmcTm9X"></path><path d="M545.95 70.01L640.22 164.28L600.68 203.83L506.4 109.55L545.95 70.01Z" id="b3VXzHbPGn"></path><path d="M656.64 147.97L681.2 172.53L251.04 602.68L226.49 578.13L656.64 147.97Z" id="a4KS3oahnP"></path></defs><g><g><g><use xlink:href="#e1UjXzUa79" opacity="1" fill="#3c4245" fill-opacity="1"></use></g><g><use xlink:href="#c2R5X2WtFw" opacity="1" fill="#93cd68" fill-opacity="1"></use></g><g><use xlink:href="#jmfvpD7CI" opacity="1" fill="#1cba0a" fill-opacity="1"></use></g><g><use xlink:href="#cmkmcTm9X" opacity="1" fill="#1cba0a" fill-opacity="1"></use></g><g><use xlink:href="#b3VXzHbPGn" opacity="1" fill="#93cd68" fill-opacity="1"></use></g><g><use xlink:href="#a4KS3oahnP" opacity="1" fill="#5d843f" fill-opacity="1"></use></g></g></g></svg>